<svg xmlns="http://www.w3.org/2000/svg" width="960" height="560" viewBox="0 0 960 560">
<rect width="100%" height="100%" fill="white"/>
<text x="480.0" y="28" text-anchor="middle" font-family="sans-serif" font-size="20">chaos — advanced preview</text>
<text x="84.0" y="518" text-anchor="middle" font-family="sans-serif" font-size="12">0%</text>
<text x="253.60000000000002" y="518" text-anchor="middle" font-family="sans-serif" font-size="12">20%</text>
<text x="423.20000000000005" y="518" text-anchor="middle" font-family="sans-serif" font-size="12">40%</text>
<text x="592.8" y="518" text-anchor="middle" font-family="sans-serif" font-size="12">60%</text>
<text x="762.4000000000001" y="518" text-anchor="middle" font-family="sans-serif" font-size="12">80%</text>
<text x="932.0" y="518" text-anchor="middle" font-family="sans-serif" font-size="12">100%</text>
<text x="74" y="494.0" text-anchor="end" font-family="sans-serif" font-size="12">0.434</text>
<text x="74" y="405.20000000000005" text-anchor="end" font-family="sans-serif" font-size="12">0.449</text>
<text x="74" y="316.4" text-anchor="end" font-family="sans-serif" font-size="12">0.464</text>
<text x="74" y="227.60000000000002" text-anchor="end" font-family="sans-serif" font-size="12">0.479</text>
<text x="74" y="138.8" text-anchor="end" font-family="sans-serif" font-size="12">0.494</text>
<text x="74" y="50.0" text-anchor="end" font-family="sans-serif" font-size="12">0.509</text>
<polygon points="84.0,388.5 154.7,436.5 225.3,436.6 296.0,459.4 366.7,456.1 437.3,457.4 508.0,457.3 578.7,454.0 649.3,446.6 720.0,426.9 790.7,396.5 861.3,333.0 932.0,142.7 932.0,142.7 861.3,76.6 790.7,133.4 720.0,98.4 649.3,121.5 578.7,109.4 508.0,112.4 437.3,112.7 366.7,120.0 296.0,144.8 225.3,173.1 154.7,236.7 84.0,388.5" fill="#2563eb" fill-opacity="0.18"/>
<polygon points="84.0,387.0 154.7,385.2 225.3,365.3 296.0,343.8 366.7,323.6 437.3,300.4 508.0,277.7 578.7,267.9 649.3,245.9 720.0,226.6 790.7,208.6 861.3,180.8 932.0,141.2 932.0,144.2 861.3,183.8 790.7,211.6 720.0,229.6 649.3,248.9 578.7,270.9 508.0,280.7 437.3,303.4 366.7,326.6 296.0,346.8 225.3,368.3 154.7,388.2 84.0,390.0" fill="#2563eb"/>
<text x="84" y="548" font-family="sans-serif" font-size="13" fill="#2563eb">■ advanced mean + range</text>
<rect x="84" y="46" width="848" height="1" fill="#111827"/>
<rect x="84" y="489" width="848" height="1" fill="#111827"/>
<rect x="84" y="46" width="1" height="444" fill="#111827"/>
<rect x="931" y="46" width="1" height="444" fill="#111827"/>
<text x="508.0" y="536" text-anchor="middle" font-family="sans-serif" font-size="14">Typedness</text>
<text x="18" y="268.0" transform="rotate(-90 18 268.0)" text-anchor="middle" font-family="sans-serif" font-size="14">Mean runtime (seconds)</text>
</svg>
